<svg viewBox="0 0 511.999 511.999">
	<path d="M255.977,232.981c-23.993,0-35.282-10.303-66.559-30.774L16.154,361.015
				c10.883,11.711,26.401,19.058,43.612,19.058h88.048v37.993c0,10.203,8.271,18.474,18.474,18.474h80.849v21.309
				c0,16.383,19.722,24.573,31.363,13.235l80.056-77.964c3.671-3.575,5.525-8.303,5.574-13.049c0,0.001,0,0.002,0,0.003h88.057
				c17.21,0,32.73-7.346,43.612-19.058L322.535,202.207C291.217,222.705,279.943,232.981,255.977,232.981z M364.131,380.07H147.814
				v-38.363c0-10.203,8.271-18.474,18.474-18.474h80.849v-21.307c0-16.303,19.685-24.615,31.363-13.235l80.056,77.963
				C362.327,370.327,364.178,375.207,364.131,380.07z" />
	<path d="M2.269,79.717c-3.428,12.706-1.983,243.761-1.877,245.196l156.851-143.765L2.269,79.717z" />
	<path d="M271.464,191.097l217.723-142.5c-10.17-8.09-23.026-12.939-36.999-12.939H59.766
				c-13.975,0-26.829,4.85-36.999,12.939l217.723,142.5C249.897,197.254,262.056,197.255,271.464,191.097z" />
	<path d="M509.683,79.717L354.709,181.148L511.56,324.913C511.666,323.482,513.245,92.914,509.683,79.717z" />
</svg>
