<svg version="1.1" viewBox="0 0 640 640">
  <g transform="matrix(1.22 0 0 1.22 320.03 319.97)">
    <linearGradient id="logo-linear-gradient" x1="72.57" y1="353.88" x2="582.61" y2="220.83"
      gradientUnits="userSpaceOnUse">
      <stop offset="0" stop-color="#87b2c2" />
      <stop offset=".56" stop-color="#4a5eab" />
      <stop offset="1" stop-color="#9d6bad" />
    </linearGradient>
    <path fill="url(#logo-linear-gradient)" transform="translate(-306.59, -260.01)"
      d="m 567.17 498.64 c 4.73 6.16 0.28 15 -7.55 14.98 c -90.06 -0.13 -400.84 16.57 -446.35 -3.47 C 0.08 460.33 48.06 347.77 100.14 324.07 c 54.22 -24.35 80.02 -25.57 131.19 -37.15 c 9.38 -2.12 7.99 -1.83 7.29 -10.26 c -129.88 -582.61 668.64 -82.61 55.46 36.28 c -9.03 2.65 -7.25 5.49 -6.74 10 c 3.61 32.11 9.54 93.06 7.46 103.06 c -26.23 82.92 -49.59 -108.09 -51.89 -98.4 c -3.52 -0.95 -24.36 5.63 -60.05 17.6 c -59.65 20 -84.22 86.55 -11.93 108.08 c 21.11 6.17 315.75 28.59 377.34 32.68 c 8.3 0.25 14.6 6.17 18.9 12.68 Z M 340.04 44.95 c -56.88 14.86 -67.71 104.9 -57.68 228.64 c 58.46 -9.66 118.44 -32.28 163.33 -70.57 c 57.12 -52.62 -10.79 -171.32 -105.65 -158.06 Z" />
  </g>
</svg>
