<svg xmlns="http://www.w3.org/2000/svg" width="1080" height="768" preserveAspectRatio="none"><g mask="url(&quot;#SvgjsMask1149&quot;)" fill="none"><path d="M104.266 785.817l100.467 104.037 105.821-202.719z" fill="rgba(8, 58, 130, 0.08)" style="animation:float1 5s infinite"/><path d="M395.6 84.003l25.631 162.84 113.553-88.717z" fill="rgba(8, 58, 130, 0.08)" style="animation:float3 6s infinite"/><path d="M188.077 550.607c49.403-1.9 95.229-25.8 120.289-68.418 25.412-43.217 27.464-96.863 2.444-140.309-25.066-43.525-72.524-69.92-122.733-68.568-48.056 1.294-86.22 34.177-111.794 74.883-27.782 44.22-50.908 98.19-25.66 143.904 25.803 46.719 84.122 60.559 137.454 58.508M683.572 512.857l40.338 69.867 84.631-95.44z" fill="rgba(8, 58, 130, 0.08)" class="prefix__triangle-float2"/></g><defs><style>@keyframes float1{0%,to{transform:translate(0,0)}50%{transform:translate(-10px,0)}}@keyframes float2{0%,to{transform:translate(0,0)}50%{transform:translate(-5px,-5px)}}@keyframes float3{0%,to{transform:translate(0,0)}50%{transform:translate(0,-10px)}}.prefix__triangle-float2{animation:float2 4s infinite}</style><mask id="prefix__SvgjsMask1149"><path fill="#fff" d="M0 0h1080v768H0z"/></mask></defs></svg>
