<?xml version="1.0" encoding="utf-8"?>
<!DOCTYPE svg PUBLIC "-//W3C//DTD SVG 1.1//EN" "http://www.w3.org/Graphics/SVG/1.1/DTD/svg11.dtd">
<svg version="1.1" xmlns="http://www.w3.org/2000/svg" xmlns:xlink="http://www.w3.org/1999/xlink" x="0px" y="0px"
  viewBox="0 0 256 256" enable-background="new 0 0 256 256" xml:space="preserve">
  <metadata> Svg Vector Icons : http://www.onlinewebfonts.com/icon </metadata>
  <g>
    <g>
      <g>
        <g>
          <path
            d="M128.1,69H98.5v29.5H69v29.5h29.5v29.5h29.5v-29.5h29.5V98.6h-29.5V69z M240.7,215L198,172.4c11.7-16.8,18.6-37.1,18.6-59c0-57-46.3-103.3-103.3-103.3C56.3,10,10,56.3,10,113.3s46.3,103.3,103.3,103.3c22,0,42.3-6.9,59.1-18.6l42.6,42.6c7.1,7.1,18.6,7.1,25.7,0C247.8,233.6,247.8,222.1,240.7,215z M113.3,187.1c-40.7,0-73.8-33-73.8-73.8c0-40.7,33-73.8,73.8-73.8c40.7,0,73.8,33,73.8,73.8S154.1,187.1,113.3,187.1z" />
        </g>
      </g>
      <g></g>
      <g></g>
      <g></g>
      <g></g>
      <g></g>
      <g></g>
      <g></g>
      <g></g>
      <g></g>
      <g></g>
      <g></g>
      <g></g>
      <g></g>
      <g></g>
      <g></g>
    </g>
  </g>
</svg>
