<svg viewBox="0 0 39 31" xmlns="http://www.w3.org/2000/svg" xmlns:xlink="http://www.w3.org/1999/xlink">
  <g stroke="none" stroke-width="1" fill="none" fill-rule="evenodd">
    <g transform="translate(-958.000000, -186.000000)" fill-rule="nonzero">
      <g transform="translate(958.000000, 186.000000)">
        <path
          d="M24.5140926,18.9753437 C23.0781207,22.6336532 19.5223806,25.1978888 15.2828444,25.2320786 C9.7782852,25.2320786 5.09428145,20.7532137 5.23104069,15.3170342 C5.36779992,9.23124827 9.98342405,5.36779992 15.2144647,5.26523049 C19.3856214,5.19685088 22.9755512,7.82946612 24.4799028,11.4877756 C25.4714073,9.98342405 27.0099486,8.85516038 28.8561983,8.34231325 C26.3261525,3.38479103 21.1634914,-5.41646727e-13 15.2486545,-5.41646727e-13 C6.83796168,-5.41646727e-13 0.0341898084,6.80377187 -4.92406116e-14,15.1802749 C-4.92406116e-14,23.6593474 6.83796168,30.5314989 15.2486545,30.5314989 C21.1634914,30.5314989 26.3603423,27.0441384 28.8903881,22.0866162 C27.0783283,21.5737691 25.5055971,20.4455054 24.5140926,18.9753437"
          fill="#046394"></path>
        <path
          d="M35.7625396,15.2144647 C35.7625396,17.7445106 33.6769613,19.7958991 31.1469155,19.7958991 C28.6168696,19.7958991 26.5654811,17.7103208 26.5654811,15.1802749 C26.5654811,12.6502291 28.6510594,10.5988406 31.1811053,10.5988406 C33.7111511,10.6330304 35.7625396,12.6844189 35.7625396,15.2144647"
          fill="#C14B8E"></path>
        <path
          d="M20.171987,15.1802749 C20.171987,17.7103208 18.0864086,19.7617093 15.5563628,19.7617093 C13.026317,19.7617093 10.9749285,17.6761309 10.9749285,15.1460851 C10.9749285,12.6160393 13.0605068,10.5646508 15.5905526,10.5646508 C18.1547883,10.5646508 20.2061768,12.6502291 20.171987,15.1802749"
          fill="#12A8BB"></path>
        <path
          d="M14.0520113,22.838792 C10.4962712,22.120806 7.79527632,18.9753437 7.79527632,15.2144647 C7.79527632,10.9407387 11.3168266,7.45337823 15.5905526,7.45337823 C18.8727742,7.45337823 21.8472876,9.57314635 22.9071716,12.6844189 L22.9413614,12.7527985 C23.0781207,13.0946966 23.2148799,13.5049743 23.3858289,13.915252 C23.556778,13.5049743 23.6935372,13.0946966 23.8302965,12.7527985 L23.8302965,12.7186087 C24.9243703,9.57314635 27.8646938,7.48756804 31.1811053,7.48756804 C33.2666836,7.48756804 35.2155027,8.30812344 36.6514746,9.7782852 C38.1216364,11.248447 38.908002,13.197266 38.908002,15.2828444 C38.908002,17.3684227 38.0874466,19.3172417 36.6172848,20.7532137 C35.147123,22.2233755 33.198304,23.0097411 31.1127256,23.0097411 C28.8903881,23.0097411 26.8048098,22.0524264 25.334648,20.4113156 L25.3004582,20.3771258 C24.6850417,19.7958991 23.9670557,18.4283067 23.3174493,17.0265246 C22.667843,18.4283067 21.9156672,19.7958991 21.3344404,20.3771258 L21.3002506,20.4113156 C19.8300889,22.0524264 17.7103208,22.9755512 15.4879832,22.9755512 C15.0435157,22.9755512 14.5648584,22.9413614 14.0520113,22.838792 M16.8555755,8.78678076 C16.4452978,8.71840114 16.0350201,8.65002153 15.5905526,8.65002153 C11.9664329,8.65002153 9.02610942,11.5561552 9.02610942,15.1802749 C9.02610942,16.9239552 9.70990559,18.565066 10.9407387,19.8300889 C12.1715718,21.060922 13.8126826,21.7447181 15.5563628,21.7447181 C17.4026125,21.7447181 19.1804825,20.9583525 20.4455054,19.5907602 L20.5480748,19.4881908 C21.0951118,19.0095335 21.949857,17.2658532 22.7362226,15.4879832 C22.2575653,14.3255297 21.9156672,13.3682151 21.8130978,13.1288864 L21.778908,13.026317 C20.9925424,10.8381693 19.1121029,9.23124827 16.8555755,8.78678076 M24.0354353,15.522173 C24.7876111,17.3000431 25.6423563,19.0095335 26.1893932,19.5223806 L26.2577729,19.5907602 L26.2919627,19.6591398 C27.5227958,21.060922 29.3006658,21.8472876 31.1811053,21.8472876 C32.9247855,21.8472876 34.5658963,21.1634914 35.8309192,19.9326583 C37.0617523,18.7018252 37.7455485,17.0607144 37.7455485,15.3170342 C37.7455485,13.5733539 37.0617523,11.9322431 35.8309192,10.6672202 C34.6000861,9.43638712 32.9589753,8.75259095 31.2152951,8.75259095 C28.4117308,8.75259095 25.9158748,10.530461 24.9927499,13.1630762 L24.9927499,13.197266 C24.8901805,13.4024049 24.5482824,14.3597195 24.0354353,15.522173"
          fill="#DFD050"></path>
      </g>
    </g>
  </g>
</svg>
