<?xml version="1.0" encoding="utf-8"?>
<!DOCTYPE svg PUBLIC "-//W3C//DTD SVG 1.1//EN" "http://www.w3.org/Graphics/SVG/1.1/DTD/svg11.dtd">
<svg version="1.1" xmlns="http://www.w3.org/2000/svg" xmlns:xlink="http://www.w3.org/1999/xlink" x="0px" y="0px"
  viewBox="0 0 256 256" enable-background="new 0 0 256 256" xml:space="preserve">
  <g>
    <g>
      <path
        d="M128,105.3L37.3,14.7c-6.3-6.3-16.4-6.2-22.6,0c-6.2,6.2-6.3,16.4,0,22.6l90.7,90.7l-90.7,90.7c-6.3,6.3-6.2,16.4,0,22.6c6.2,6.2,16.4,6.3,22.6,0l90.7-90.7l90.7,90.7c6.3,6.3,16.4,6.2,22.6,0c6.2-6.2,6.3-16.4,0-22.6L150.7,128l90.7-90.7c6.3-6.3,6.2-16.4,0-22.6c-6.2-6.2-16.4-6.3-22.6,0L128,105.3z" />
    </g>
  </g>
</svg>
