<?xml version="1.0" encoding="UTF-8"?><svg id="Layer_1" xmlns="http://www.w3.org/2000/svg" xmlns:xlink="http://www.w3.org/1999/xlink" viewBox="0 0 569.11 657.36"><defs><style>.cls-1{fill:url(#linear-gradient);}</style><linearGradient id="linear-gradient" x1="72.57" y1="353.88" x2="582.61" y2="220.83" gradientUnits="userSpaceOnUse"><stop offset="0" stop-color="#87b2c2"/><stop offset=".56" stop-color="#4a5eab"/><stop offset="1" stop-color="#9d6bad"/></linearGradient></defs><path class="cls-1" d="m567.17,498.64c4.73,6.16.28,15-7.55,14.98-90.06-.13-400.84,16.57-446.35-3.47C.08,460.33,48.06,347.77,100.14,324.07c54.22-24.35,80.02-25.57,131.19-37.15,9.38-2.12,7.99-1.83,7.29-10.26-129.88-582.61,668.64-82.61,55.46,36.28-9.03,2.65-7.25,5.49-6.74,10,3.61,32.11,9.54,93.06,7.46,103.06-26.23,82.92-49.59-108.09-51.89-98.4-3.52-.95-24.36,5.63-60.05,17.6-59.65,20-84.22,86.55-11.93,108.08,21.11,6.17,315.75,28.59,377.34,32.68,8.3.25,14.6,6.17,18.9,12.68ZM340.04,44.95c-56.88,14.86-67.71,104.9-57.68,228.64,58.46-9.66,118.44-32.28,163.33-70.57,57.12-52.62-10.79-171.32-105.65-158.06Z"/></svg>