<?xml version="1.0" encoding="utf-8"?>
<svg fill="#000000" viewBox="0 0 24 24" id="translate" data-name="Line Color" xmlns="http://www.w3.org/2000/svg"
  class="icon line-color">
  <path id="secondary" d="M10,11a8.14,8.14,0,0,0,4,3"
    style="fill: none; stroke: rgb(44, 169, 188); stroke-linecap: round; stroke-linejoin: round; stroke-width: 2;">
  </path>
  <path id="secondary-2" data-name="secondary" d="M10,14c4-1,4-6,4-6"
    style="fill: none; stroke: rgb(44, 169, 188); stroke-linecap: round; stroke-linejoin: round; stroke-width: 2;">
  </path>
  <path id="secondary-3" data-name="secondary" d="M8,8h8M12,7V8"
    style="fill: none; stroke: rgb(44, 169, 188); stroke-linecap: round; stroke-linejoin: round; stroke-width: 2;">
  </path>
  <path id="primary" d="M21,4V16a1,1,0,0,1-1,1H16l-4,4L8,17H4a1,1,0,0,1-1-1V4A1,1,0,0,1,4,3H20A1,1,0,0,1,21,4Z"
    style="fill: none; stroke: rgb(0, 0, 0); stroke-linecap: round; stroke-linejoin: round; stroke-width: 2;"></path>
</svg>
