<?xml version="1.0" encoding="utf-8"?>
<!DOCTYPE svg PUBLIC "-//W3C//DTD SVG 1.1//EN" "http://www.w3.org/Graphics/SVG/1.1/DTD/svg11.dtd">
<svg version="1.1" xmlns="http://www.w3.org/2000/svg" xmlns:xlink="http://www.w3.org/1999/xlink" x="0px" y="0px"
  viewBox="0 0 256 256" enable-background="new 0 0 256 256" xml:space="preserve">
  <g>
    <g>
      <path
        d="M128,10c3.3,0,6,1.2,8.4,3.5c2.3,2.3,3.4,5.1,3.4,8.3v94.4h94.4c3.3,0,6,1.2,8.4,3.5c2.3,2.3,3.5,5.1,3.5,8.4c0,3.3-1.2,6-3.5,8.3c-2.3,2.3-5.1,3.5-8.4,3.5h-94.4v94.4c0,3.3-1.2,6-3.5,8.4c-2.3,2.3-5.1,3.5-8.4,3.5c-3.3,0-6-1.2-8.4-3.5s-3.5-5.1-3.5-8.4v-94.4H21.8c-3.3,0-6-1.2-8.4-3.5c-2.3-2.3-3.4-5.1-3.4-8.3c0-3.3,1.2-6,3.5-8.4c2.3-2.3,5.1-3.4,8.3-3.4h94.4V21.8c0-3.3,1.2-6,3.5-8.4C121.9,11.1,124.7,10,128,10L128,10z" />
    </g>
  </g>
</svg>
