<?xml version="1.0" encoding="iso-8859-1"?>
<svg xmlns="http://www.w3.org/2000/svg" xmlns:xlink="http://www.w3.org/1999/xlink" version="1.1"
	viewBox="0 0 470.1 470.1" xml:space="preserve">
	<g>
		<rect x="91.46" y="57.5" style="fill:#FFE76D;" width="160.24" height="56.47" />
		<rect x="91.46" y="155.98" style="fill:#C2DC71;" width="160.24" height="56.47" />
		<rect x="91.46" y="254.45" style="fill:#6ECDFB;" width="160.24" height="56.47" />
		<rect x="91.46" y="352.92" style="fill:#1895C2;" width="160.24" height="56.48" />
		<path style="fill:#6ECDFB;"
			d="M351.58,172.67V429c0,18.56,15.07,33.6,33.63,33.6c18.55,0,33.52-15.04,33.52-33.6V172.67H351.58z" />
		<path style="fill:#FFF8ED;"
			d="M414.73,12.6h-59.12c-7.68,0-13.91,6.23-13.91,13.91v49.4h86.94v-49.4   C428.64,18.83,422.42,12.6,414.73,12.6z" />
		<rect x="351.58" y="75.91" style="fill:#FFFFFF;" width="67.15" height="96.76" />
		<path style="fill:#FFF8ED;"
			d="M294.7,7.5H48.46c-3.87,0-7,3.13-7,7v437.9c0,3.86,3.13,7,7,7H294.7c3.86,0,7-3.14,7-7V14.5   C301.7,10.63,298.56,7.5,294.7,7.5z M251.7,409.4H91.46v-56.48H251.7V409.4z M251.7,310.92H91.46v-56.47H251.7V310.92z    M251.7,212.45H91.46v-56.47H251.7V212.45z M251.7,113.97H91.46V57.5H251.7V113.97z" />
		<path style="fill:#591200;"
			d="M294.696,0H48.455c-7.995,0-14.5,6.505-14.5,14.5v437.896c0,7.995,6.505,14.5,14.5,14.5h246.241   c7.995,0,14.5-6.505,14.5-14.5V14.5C309.196,6.505,302.691,0,294.696,0z M294.196,451.896H48.955V15h245.241V451.896z" />
		<path style="fill:#591200;"
			d="M91.455,416.896h160.241c4.143,0,7.5-3.357,7.5-7.5v-56.472c0-4.143-3.357-7.5-7.5-7.5H91.455   c-4.143,0-7.5,3.357-7.5,7.5v56.472C83.955,413.539,87.313,416.896,91.455,416.896z M98.955,360.425h145.241v41.472H98.955V360.425   z" />
		<path style="fill:#591200;"
			d="M91.455,318.422h160.241c4.143,0,7.5-3.357,7.5-7.5V254.45c0-4.143-3.357-7.5-7.5-7.5H91.455   c-4.143,0-7.5,3.357-7.5,7.5v56.472C83.955,315.064,87.313,318.422,91.455,318.422z M98.955,261.95h145.241v41.472H98.955V261.95z" />
		<path style="fill:#591200;"
			d="M91.455,219.946h160.241c4.143,0,7.5-3.357,7.5-7.5v-56.472c0-4.143-3.357-7.5-7.5-7.5H91.455   c-4.143,0-7.5,3.357-7.5,7.5v56.472C83.955,216.589,87.313,219.946,91.455,219.946z M98.955,163.475h145.241v41.472H98.955V163.475   z" />
		<path style="fill:#591200;"
			d="M91.455,121.472h160.241c4.143,0,7.5-3.357,7.5-7.5V57.5c0-4.143-3.357-7.5-7.5-7.5H91.455   c-4.143,0-7.5,3.357-7.5,7.5v56.472C83.955,118.114,87.313,121.472,91.455,121.472z M98.955,65h145.241v41.472H98.955V65z" />
		<path style="fill:#591200;"
			d="M414.732,5.1h-59.124c-11.807,0-21.412,9.605-21.412,21.412v49.396c0,4.143,3.357,7.5,7.5,7.5h2.342   l0.068,345.593c0,22.662,18.438,41.099,41.1,41.099c22.661,0,41.098-18.437,41.098-41.101l-0.068-345.591h2.409   c4.143,0,7.5-3.357,7.5-7.5V26.512C436.145,14.705,426.539,5.1,414.732,5.1z M349.196,26.512c0-3.535,2.876-6.412,6.412-6.412   h59.124c3.536,0,6.412,2.877,6.412,6.412v41.896h-71.948V26.512z M411.304,429.001c0,14.391-11.707,26.099-26.098,26.099   c-14.392,0-26.1-11.708-26.1-26.101l-0.068-345.591h52.197L411.304,429.001z" />
		<path style="fill:#591200;"
			d="M375.282,180.166h19.776c4.143,0,7.5-3.357,7.5-7.5s-3.357-7.5-7.5-7.5h-19.776   c-4.143,0-7.5,3.357-7.5,7.5S371.14,180.166,375.282,180.166z" />
	</g>















</svg>
